<?xml version='1.0' encoding='iso-8859-1'?>
<svg version="1.1" xmlns="http://www.w3.org/2000/svg" viewBox="0 0 32 32" xmlns:xlink="http://www.w3.org/1999/xlink" enable-background="new 0 0 32 32">
  <g>
    <g>
      <path d="m28.5,0h-18c-1.105,0-2,0.895-2,2v5h2v-5h18v22h-6v2h6c1.105,0 2-0.895 2-2v-22c0-1.105-0.895-2-2-2z"/>
    </g>
  </g>
  <g>
    <g>
      <path d="m7.5,14h10c0.552,0 1-0.448 1-1s-0.448-1-1-1h-10c-0.552,0-1,0.448-1,1s0.448,1 1,1zm14-8h-18c-1.105,0-2,0.895-2,2v22c0,1.105 0.895,2 2,2h18c1.105,0 2-0.895 2-2v-22c0-1.105-0.895-2-2-2zm0,24h-18v-22h18v22zm-14-12h10c0.552,0 1-0.448 1-1 0-0.552-0.448-1-1-1h-10c-0.552,0-1,0.448-1,1 0,0.552 0.448,1 1,1z"/>
    </g>
  </g>
</svg>
